<mxfile host="app.diagrams.net" modified="2024-01-31T12:50:07.273Z" agent="Mozilla/5.0 (Macintosh; Intel Mac OS X 10_15_7) AppleWebKit/537.36 (KHTML, like Gecko) Chrome/121.0.0.0 Safari/537.36" etag="MsSIk4t72_Hm0AjLHi_K" version="23.0.2" type="github">
  <diagram name="Page-1" id="pIZVqVz-QSC1CDEHX4U9">
    <mxGraphModel dx="1363" dy="724" grid="1" gridSize="10" guides="1" tooltips="1" connect="1" arrows="1" fold="1" page="0" pageScale="1" pageWidth="850" pageHeight="1100" math="0" shadow="0">
      <root>
        <mxCell id="0" />
        <mxCell id="1" parent="0" />
        <mxCell id="lX6FY2TzbBQI9lHZ4D5R-1" value="" style="rounded=0;whiteSpace=wrap;html=1;" vertex="1" parent="1">
          <mxGeometry x="225" y="190" width="120" height="60" as="geometry" />
        </mxCell>
        <mxCell id="lX6FY2TzbBQI9lHZ4D5R-2" value="" style="rounded=0;whiteSpace=wrap;html=1;" vertex="1" parent="1">
          <mxGeometry x="610" y="280" width="120" height="60" as="geometry" />
        </mxCell>
        <mxCell id="lX6FY2TzbBQI9lHZ4D5R-3" value="" style="rounded=0;whiteSpace=wrap;html=1;" vertex="1" parent="1">
          <mxGeometry x="600" y="130" width="120" height="60" as="geometry" />
        </mxCell>
        <mxCell id="lX6FY2TzbBQI9lHZ4D5R-20" value="" style="rounded=0;whiteSpace=wrap;html=1;strokeWidth=5;fontSize=37;fillColor=none;strokeColor=#FFFF33;fontColor=#FFFF33;" vertex="1" parent="1">
          <mxGeometry x="1013.499951171875" y="3155.999951171875" width="339" height="89" as="geometry" />
        </mxCell>
        <mxCell id="lX6FY2TzbBQI9lHZ4D5R-21" style="edgeStyle=orthogonalEdgeStyle;rounded=0;html=1;jettySize=auto;orthogonalLoop=1;strokeWidth=5;fontSize=37;fontColor=#1BA1E2;endArrow=block;endFill=0;endSize=20;strokeColor=#FFFF33;" edge="1" parent="1">
          <mxGeometry relative="1" as="geometry">
            <mxPoint x="1386.4999511718752" y="3201.6699511718753" as="sourcePoint" />
            <mxPoint x="1586.4999511718752" y="3201.6699511718753" as="targetPoint" />
            <Array as="points" />
          </mxGeometry>
        </mxCell>
        <mxCell id="lX6FY2TzbBQI9lHZ4D5R-22" style="edgeStyle=orthogonalEdgeStyle;rounded=0;html=1;jettySize=auto;orthogonalLoop=1;strokeWidth=5;fontSize=37;fontColor=#FF8000;endArrow=block;endFill=0;endSize=18;dashed=1;strokeColor=#FFFF33;" edge="1" parent="1">
          <mxGeometry relative="1" as="geometry">
            <mxPoint x="1384.4999511718752" y="3248.6699511718753" as="sourcePoint" />
            <mxPoint x="1584.4999511718752" y="3248.6699511718753" as="targetPoint" />
            <Array as="points" />
          </mxGeometry>
        </mxCell>
        <mxCell id="lX6FY2TzbBQI9lHZ4D5R-23" style="edgeStyle=orthogonalEdgeStyle;rounded=0;html=1;jettySize=auto;orthogonalLoop=1;strokeWidth=5;fontSize=37;endArrow=classic;fontColor=#CC99FF;strokeColor=#FFFF33;" edge="1" parent="1">
          <mxGeometry relative="1" as="geometry">
            <mxPoint x="1385.4999511718752" y="3156.6699511718753" as="sourcePoint" />
            <mxPoint x="1585.4999511718743" y="3156.6699511718753" as="targetPoint" />
            <Array as="points" />
          </mxGeometry>
        </mxCell>
        <mxCell id="lX6FY2TzbBQI9lHZ4D5R-24" value="" style="rounded=0;whiteSpace=wrap;html=1;strokeWidth=5;fontSize=37;fillColor=none;strokeColor=#FF3399;fontColor=#FF3399;" vertex="1" parent="1">
          <mxGeometry x="1013.499951171875" y="3335.999951171875" width="339" height="89" as="geometry" />
        </mxCell>
        <mxCell id="lX6FY2TzbBQI9lHZ4D5R-25" style="edgeStyle=orthogonalEdgeStyle;rounded=0;html=1;jettySize=auto;orthogonalLoop=1;strokeWidth=5;fontSize=37;endArrow=block;endFill=0;endSize=20;strokeColor=#FF3399;fontColor=#FF3399;" edge="1" parent="1">
          <mxGeometry relative="1" as="geometry">
            <mxPoint x="1386.4999511718752" y="3381.6699511718753" as="sourcePoint" />
            <mxPoint x="1586.4999511718752" y="3381.6699511718753" as="targetPoint" />
            <Array as="points" />
          </mxGeometry>
        </mxCell>
        <mxCell id="lX6FY2TzbBQI9lHZ4D5R-26" style="edgeStyle=orthogonalEdgeStyle;rounded=0;html=1;jettySize=auto;orthogonalLoop=1;strokeWidth=5;fontSize=37;endArrow=block;endFill=0;endSize=18;dashed=1;strokeColor=#FF3399;fontColor=#FF3399;" edge="1" parent="1">
          <mxGeometry relative="1" as="geometry">
            <mxPoint x="1384.4999511718743" y="3428.6699511718753" as="sourcePoint" />
            <mxPoint x="1584.4999511718743" y="3428.6699511718753" as="targetPoint" />
            <Array as="points" />
          </mxGeometry>
        </mxCell>
        <mxCell id="lX6FY2TzbBQI9lHZ4D5R-27" style="edgeStyle=orthogonalEdgeStyle;rounded=0;html=1;jettySize=auto;orthogonalLoop=1;strokeWidth=5;fontSize=37;endArrow=classic;strokeColor=#FF3399;fontColor=#FF3399;" edge="1" parent="1">
          <mxGeometry relative="1" as="geometry">
            <mxPoint x="1385.4999511718752" y="3336.6699511718753" as="sourcePoint" />
            <mxPoint x="1585.4999511718743" y="3336.6699511718753" as="targetPoint" />
            <Array as="points" />
          </mxGeometry>
        </mxCell>
        <mxCell id="lX6FY2TzbBQI9lHZ4D5R-30" value="" style="rounded=0;whiteSpace=wrap;html=1;strokeWidth=5;fontSize=37;fontColor=#1BA1E2;fillColor=none;strokeColor=#1BA1E2;" vertex="1" parent="1">
          <mxGeometry x="1013.499951171875" y="2994.499951171875" width="339" height="89" as="geometry" />
        </mxCell>
        <mxCell id="lX6FY2TzbBQI9lHZ4D5R-31" value="" style="rounded=0;whiteSpace=wrap;html=1;strokeWidth=5;fontSize=37;fontColor=#CC99FF;labelBackgroundColor=none;fillColor=none;strokeColor=#CC99FF;" vertex="1" parent="1">
          <mxGeometry x="1008.999951171875" y="2524.999951171875" width="348" height="92" as="geometry" />
        </mxCell>
        <mxCell id="lX6FY2TzbBQI9lHZ4D5R-32" value="&lt;p&gt;&lt;br&gt;&lt;/p&gt;" style="rounded=0;whiteSpace=wrap;html=1;strokeWidth=5;fontSize=37;fontColor=#FF8000;fillColor=none;strokeColor=#FF8000;" vertex="1" parent="1">
          <mxGeometry x="1011.499951171875" y="2678.999951171875" width="343" height="86" as="geometry" />
        </mxCell>
        <mxCell id="lX6FY2TzbBQI9lHZ4D5R-33" value="" style="rounded=0;whiteSpace=wrap;html=1;strokeWidth=5;fontSize=37;fontColor=#00CC00;labelBackgroundColor=none;fillColor=none;strokeColor=#00CC00;" vertex="1" parent="1">
          <mxGeometry x="1008.999951171875" y="2831.999951171875" width="348" height="92" as="geometry" />
        </mxCell>
        <mxCell id="lX6FY2TzbBQI9lHZ4D5R-34" style="edgeStyle=orthogonalEdgeStyle;rounded=0;html=1;jettySize=auto;orthogonalLoop=1;strokeColor=#CC99FF;strokeWidth=5;fontSize=37;fontColor=#1BA1E2;endArrow=block;endFill=0;endSize=20;" edge="1" parent="1">
          <mxGeometry relative="1" as="geometry">
            <mxPoint x="1406.4999511718752" y="2570.1699511718753" as="sourcePoint" />
            <mxPoint x="1606.4999511718752" y="2570.1699511718753" as="targetPoint" />
            <Array as="points" />
          </mxGeometry>
        </mxCell>
        <mxCell id="lX6FY2TzbBQI9lHZ4D5R-35" style="edgeStyle=orthogonalEdgeStyle;rounded=0;html=1;jettySize=auto;orthogonalLoop=1;strokeWidth=5;fontSize=37;fontColor=#FF8000;endArrow=block;endFill=0;endSize=18;dashed=1;strokeColor=#CC99FF;" edge="1" parent="1">
          <mxGeometry relative="1" as="geometry">
            <mxPoint x="1404.4999511718752" y="2617.1699511718753" as="sourcePoint" />
            <mxPoint x="1604.4999511718752" y="2617.1699511718753" as="targetPoint" />
            <Array as="points" />
          </mxGeometry>
        </mxCell>
        <mxCell id="lX6FY2TzbBQI9lHZ4D5R-36" style="edgeStyle=orthogonalEdgeStyle;rounded=0;html=1;jettySize=auto;orthogonalLoop=1;strokeWidth=5;fontSize=37;endArrow=classic;fontColor=#CC99FF;strokeColor=#CC99FF;" edge="1" parent="1">
          <mxGeometry relative="1" as="geometry">
            <mxPoint x="1405.4999511718752" y="2525.1699511718753" as="sourcePoint" />
            <mxPoint x="1605.4999511718752" y="2525.1699511718753" as="targetPoint" />
            <Array as="points" />
          </mxGeometry>
        </mxCell>
        <mxCell id="lX6FY2TzbBQI9lHZ4D5R-37" style="edgeStyle=orthogonalEdgeStyle;rounded=0;html=1;jettySize=auto;orthogonalLoop=1;strokeWidth=5;fontSize=37;fontColor=#1BA1E2;endArrow=block;endFill=0;endSize=20;strokeColor=#FF8000;" edge="1" parent="1">
          <mxGeometry relative="1" as="geometry">
            <mxPoint x="1394.9999511718752" y="2722.1699511718753" as="sourcePoint" />
            <mxPoint x="1594.9999511718752" y="2722.1699511718753" as="targetPoint" />
            <Array as="points" />
          </mxGeometry>
        </mxCell>
        <mxCell id="lX6FY2TzbBQI9lHZ4D5R-38" style="edgeStyle=orthogonalEdgeStyle;rounded=0;html=1;jettySize=auto;orthogonalLoop=1;strokeWidth=5;fontSize=37;fontColor=#FF8000;endArrow=block;endFill=0;endSize=18;dashed=1;strokeColor=#FF8000;" edge="1" parent="1">
          <mxGeometry relative="1" as="geometry">
            <mxPoint x="1392.9999511718752" y="2769.1699511718753" as="sourcePoint" />
            <mxPoint x="1592.9999511718752" y="2769.1699511718753" as="targetPoint" />
            <Array as="points" />
          </mxGeometry>
        </mxCell>
        <mxCell id="lX6FY2TzbBQI9lHZ4D5R-39" style="edgeStyle=orthogonalEdgeStyle;rounded=0;html=1;jettySize=auto;orthogonalLoop=1;strokeWidth=5;fontSize=37;endArrow=classic;fontColor=#CC99FF;strokeColor=#FF8000;" edge="1" parent="1">
          <mxGeometry relative="1" as="geometry">
            <mxPoint x="1393.9999511718752" y="2677.1699511718753" as="sourcePoint" />
            <mxPoint x="1593.9999511718752" y="2677.1699511718753" as="targetPoint" />
            <Array as="points" />
          </mxGeometry>
        </mxCell>
        <mxCell id="lX6FY2TzbBQI9lHZ4D5R-40" style="edgeStyle=orthogonalEdgeStyle;rounded=0;html=1;jettySize=auto;orthogonalLoop=1;strokeWidth=5;fontSize=37;fontColor=#1BA1E2;endArrow=block;endFill=0;endSize=20;strokeColor=#00CC00;" edge="1" parent="1">
          <mxGeometry relative="1" as="geometry">
            <mxPoint x="1396.4999511718752" y="2880.1699511718753" as="sourcePoint" />
            <mxPoint x="1596.4999511718752" y="2880.1699511718753" as="targetPoint" />
            <Array as="points" />
          </mxGeometry>
        </mxCell>
        <mxCell id="lX6FY2TzbBQI9lHZ4D5R-41" style="edgeStyle=orthogonalEdgeStyle;rounded=0;html=1;jettySize=auto;orthogonalLoop=1;strokeWidth=5;fontSize=37;fontColor=#FF8000;endArrow=block;endFill=0;endSize=18;dashed=1;strokeColor=#00CC00;" edge="1" parent="1">
          <mxGeometry relative="1" as="geometry">
            <mxPoint x="1394.4999511718752" y="2927.1699511718753" as="sourcePoint" />
            <mxPoint x="1594.4999511718752" y="2927.1699511718753" as="targetPoint" />
            <Array as="points" />
          </mxGeometry>
        </mxCell>
        <mxCell id="lX6FY2TzbBQI9lHZ4D5R-42" style="edgeStyle=orthogonalEdgeStyle;rounded=0;html=1;jettySize=auto;orthogonalLoop=1;strokeWidth=5;fontSize=37;endArrow=classic;fontColor=#CC99FF;strokeColor=#00CC00;" edge="1" parent="1">
          <mxGeometry relative="1" as="geometry">
            <mxPoint x="1395.4999511718752" y="2835.1699511718753" as="sourcePoint" />
            <mxPoint x="1595.4999511718752" y="2835.1699511718753" as="targetPoint" />
            <Array as="points" />
          </mxGeometry>
        </mxCell>
        <mxCell id="lX6FY2TzbBQI9lHZ4D5R-43" style="edgeStyle=orthogonalEdgeStyle;rounded=0;html=1;jettySize=auto;orthogonalLoop=1;strokeWidth=5;fontSize=37;fontColor=#1BA1E2;endArrow=block;endFill=0;endSize=20;strokeColor=#1BA1E2;" edge="1" parent="1">
          <mxGeometry relative="1" as="geometry">
            <mxPoint x="1386.4999511718752" y="3040.1699511718753" as="sourcePoint" />
            <mxPoint x="1586.4999511718752" y="3040.1699511718753" as="targetPoint" />
            <Array as="points" />
          </mxGeometry>
        </mxCell>
        <mxCell id="lX6FY2TzbBQI9lHZ4D5R-44" style="edgeStyle=orthogonalEdgeStyle;rounded=0;html=1;jettySize=auto;orthogonalLoop=1;strokeWidth=5;fontSize=37;fontColor=#FF8000;endArrow=block;endFill=0;endSize=18;dashed=1;strokeColor=#1BA1E2;" edge="1" parent="1">
          <mxGeometry relative="1" as="geometry">
            <mxPoint x="1384.4999511718752" y="3087.1699511718753" as="sourcePoint" />
            <mxPoint x="1584.4999511718752" y="3087.1699511718753" as="targetPoint" />
            <Array as="points" />
          </mxGeometry>
        </mxCell>
        <mxCell id="lX6FY2TzbBQI9lHZ4D5R-45" style="edgeStyle=orthogonalEdgeStyle;rounded=0;html=1;jettySize=auto;orthogonalLoop=1;strokeWidth=5;fontSize=37;endArrow=classic;fontColor=#CC99FF;strokeColor=#1BA1E2;" edge="1" parent="1">
          <mxGeometry relative="1" as="geometry">
            <mxPoint x="1385.4999511718752" y="2995.1699511718753" as="sourcePoint" />
            <mxPoint x="1585.4999511718752" y="2995.1699511718753" as="targetPoint" />
            <Array as="points" />
          </mxGeometry>
        </mxCell>
        <mxCell id="lX6FY2TzbBQI9lHZ4D5R-46" value="" style="rounded=0;whiteSpace=wrap;html=1;strokeWidth=5;fontSize=37;fillColor=none;strokeColor=#FFFF33;fontColor=#FFFF33;" vertex="1" parent="1">
          <mxGeometry x="1013.499951171875" y="3155.999951171875" width="339" height="89" as="geometry" />
        </mxCell>
        <mxCell id="lX6FY2TzbBQI9lHZ4D5R-47" style="edgeStyle=orthogonalEdgeStyle;rounded=0;html=1;jettySize=auto;orthogonalLoop=1;strokeWidth=5;fontSize=37;fontColor=#1BA1E2;endArrow=block;endFill=0;endSize=20;strokeColor=#FFFF33;" edge="1" parent="1">
          <mxGeometry relative="1" as="geometry">
            <mxPoint x="1386.4999511718752" y="3201.6699511718753" as="sourcePoint" />
            <mxPoint x="1586.4999511718752" y="3201.6699511718753" as="targetPoint" />
            <Array as="points" />
          </mxGeometry>
        </mxCell>
        <mxCell id="lX6FY2TzbBQI9lHZ4D5R-48" style="edgeStyle=orthogonalEdgeStyle;rounded=0;html=1;jettySize=auto;orthogonalLoop=1;strokeWidth=5;fontSize=37;fontColor=#FF8000;endArrow=block;endFill=0;endSize=18;dashed=1;strokeColor=#FFFF33;" edge="1" parent="1">
          <mxGeometry relative="1" as="geometry">
            <mxPoint x="1384.4999511718752" y="3248.6699511718753" as="sourcePoint" />
            <mxPoint x="1584.4999511718752" y="3248.6699511718753" as="targetPoint" />
            <Array as="points" />
          </mxGeometry>
        </mxCell>
        <mxCell id="lX6FY2TzbBQI9lHZ4D5R-49" style="edgeStyle=orthogonalEdgeStyle;rounded=0;html=1;jettySize=auto;orthogonalLoop=1;strokeWidth=5;fontSize=37;endArrow=classic;fontColor=#CC99FF;strokeColor=#FFFF33;" edge="1" parent="1">
          <mxGeometry relative="1" as="geometry">
            <mxPoint x="1385.4999511718752" y="3156.6699511718753" as="sourcePoint" />
            <mxPoint x="1585.4999511718743" y="3156.6699511718753" as="targetPoint" />
            <Array as="points" />
          </mxGeometry>
        </mxCell>
        <mxCell id="lX6FY2TzbBQI9lHZ4D5R-50" value="" style="rounded=0;whiteSpace=wrap;html=1;strokeWidth=5;fontSize=37;fillColor=none;strokeColor=#FF3399;fontColor=#FF3399;" vertex="1" parent="1">
          <mxGeometry x="1013.499951171875" y="3335.999951171875" width="339" height="89" as="geometry" />
        </mxCell>
        <mxCell id="lX6FY2TzbBQI9lHZ4D5R-51" style="edgeStyle=orthogonalEdgeStyle;rounded=0;html=1;jettySize=auto;orthogonalLoop=1;strokeWidth=5;fontSize=37;endArrow=block;endFill=0;endSize=20;strokeColor=#FF3399;fontColor=#FF3399;" edge="1" parent="1">
          <mxGeometry relative="1" as="geometry">
            <mxPoint x="1386.4999511718752" y="3381.6699511718753" as="sourcePoint" />
            <mxPoint x="1586.4999511718752" y="3381.6699511718753" as="targetPoint" />
            <Array as="points" />
          </mxGeometry>
        </mxCell>
        <mxCell id="lX6FY2TzbBQI9lHZ4D5R-52" style="edgeStyle=orthogonalEdgeStyle;rounded=0;html=1;jettySize=auto;orthogonalLoop=1;strokeWidth=5;fontSize=37;endArrow=block;endFill=0;endSize=18;dashed=1;strokeColor=#FF3399;fontColor=#FF3399;" edge="1" parent="1">
          <mxGeometry relative="1" as="geometry">
            <mxPoint x="1384.4999511718743" y="3428.6699511718753" as="sourcePoint" />
            <mxPoint x="1584.4999511718743" y="3428.6699511718753" as="targetPoint" />
            <Array as="points" />
          </mxGeometry>
        </mxCell>
        <mxCell id="lX6FY2TzbBQI9lHZ4D5R-53" style="edgeStyle=orthogonalEdgeStyle;rounded=0;html=1;jettySize=auto;orthogonalLoop=1;strokeWidth=5;fontSize=37;endArrow=classic;strokeColor=#FF3399;fontColor=#FF3399;" edge="1" parent="1">
          <mxGeometry relative="1" as="geometry">
            <mxPoint x="1385.4999511718752" y="3336.6699511718753" as="sourcePoint" />
            <mxPoint x="1585.4999511718743" y="3336.6699511718753" as="targetPoint" />
            <Array as="points" />
          </mxGeometry>
        </mxCell>
        <mxCell id="lX6FY2TzbBQI9lHZ4D5R-54" value="&lt;pre style=&quot;color: rgb(255, 255, 255); font-style: normal; font-variant-ligatures: normal; font-variant-caps: normal; font-weight: 400; letter-spacing: normal; orphans: 2; text-align: start; text-indent: 0px; text-transform: none; widows: 2; word-spacing: 0px; -webkit-text-stroke-width: 0px; text-decoration-thickness: initial; text-decoration-style: initial; text-decoration-color: initial; overflow-wrap: break-word;&quot;&gt;&amp;lt;mxfile host=&quot;Electron&quot; modified=&quot;2022-11-18T10:47:12.592Z&quot; agent=&quot;5.0 (Macintosh; Intel Mac OS X 10_15_7) AppleWebKit/537.36 (KHTML, like Gecko) draw.io/20.3.0 Chrome/104.0.5112.114 Electron/20.1.3 Safari/537.36&quot; etag=&quot;V_h0rTaepy3bNOX4v6pj&quot; version=&quot;20.3.0&quot; type=&quot;device&quot;&amp;gt;&amp;lt;diagram id=&quot;3yLI1t425MeNp9wt49uc&quot; name=&quot;Page-1&quot;&amp;gt;7ZxNb+IwEIZ/DcetkpiP5Fho2R62UqVut9Le3MQlaU2Mgillf/06xAkEnHaLBsZBy6V4Yr9JPE8mr0YVHTKavn/P6Cy+FRHjHc+J3jvkquN5rtcl6k8eWRURzynGkyyJishW4D75w/TCMrpIIjbXsSIkheAymdWDoUhTFspajGaZWNanPQse1QIzOmG1y8gD9yHlbG/aYxLJuIj6va3ZNyyZxOWZXUcfeaLh6yQTi1Sfr+OR4lMcntJSS8+fxzQSy60Que6QUSaELL5N30eM51tb37Zxw9HqujOWyn9Z8Bg8XP66lQPv5ubhauzcPf5+efzmFSpvlC9YeRvri5WrcoPWt8hyEadDhss4kex+RsP86FIRoWKxnHI1ctXXuczEa7WRPRV5FqnUWScDPR4JLrK1OhmNgmCsLnnI6RPjw2pPyympSFm+KuF8J1ScyiSl74llkr03bpZbpUCRzcSUyWylppQL3DJtJdUeCS7cQRFbbkAh5bx4G5IySDWck+oEmwSpLzpHX8hXby89LFI466HIZCwmIqX8ehMd1hO4lawXJuVK54YupFChjcIPIWbGpPYNSWVpdJk/i2r8xEX4+jNO0g9y3Zy6Bgo2z9b6XOOEl/egRvpCXKdKfb4nX018xjiVyVt9nSl/eumdSJTiBpiuvwtMdweCuVhkIdPrth/UXSnf+UxK0mzC5J6UygFdbU2b5RPme9BVd304hwN8Dk3FZZfD4zPo1BkcWMagD8fgrhQ6g6WD+F8MG4phROfx+lZdu6gkbnDhBFBgmtTw2XTx2bS2QFrLZQ+US4MaPpfohn88VjvlgBj+Suoohr9bmi48t+8S/Cpy+BuuSk9z4s7I7itcLnwCVTxMavjFo4uP42EvNWgU7Xb9KgCJokENH8VWN0JOUBlt9Vg95dYDD4pNkxo+m318Nq0tk9Zy2QPl0qCGz+UA2/s7zmgE5P0rqaN4/74F3t/HryKHv+Gq9DQn7oy8fx/U+5vU8ItHgI/jYS81aBTt9v59UO9vUkNH0Wt13/8EldFWjzUA9f4mNXw2W9v3P0GZtJZLUO9vUsPnEr3v7w4v3WsPxPtXUkfx/j6+9/da3fev0tOcuDPy/j6o9zep4ReP1vb9oVG02/v7oN7fpIaPYqv7/ieojLZ6rADU+5vU8Nlsbd//BGXSWi5Bvb9JDZ9L9L7/WH3WiED8z4+WOob3J44F3r/Vff8qPc2JOx/vn+MCZ7iMavjFo7V9f2gUrfb+xIH0/kY1dBRJq/v+J6iMlnos4kJ6f6MaPput7fufoExayyWk9zeq4XOJ3vfPGQoCIO+vpY7i/T18708s6Pt/UkVCTufzJPwgz4a0OcpPnJfz90Cdv0kNv3S0tusPjWL9lebZhiKo8zep4aNoQdff4rpoq78ioL7fpIZPZmt7/sctkq5vM5egvt+kdkQu1XDzm0HF9M3vMpHrvw==&amp;lt;/diagram&amp;gt;&amp;lt;/mxfile&amp;gt;&lt;/pre&gt;" style="text;whiteSpace=wrap;html=1;" vertex="1" parent="1">
          <mxGeometry x="1720" y="2630" width="560" height="60" as="geometry" />
        </mxCell>
      </root>
    </mxGraphModel>
  </diagram>
</mxfile>
